<?xml version="1.0" encoding="utf-8"?>
<!-- Generator: Adobe Illustrator 16.2.1, SVG Export Plug-In . SVG Version: 6.00 Build 0)  -->
<!DOCTYPE svg PUBLIC "-//W3C//DTD SVG 1.1//EN" "http://www.w3.org/Graphics/SVG/1.1/DTD/svg11.dtd">
<svg version="1.1" id="Layer_1" xmlns="http://www.w3.org/2000/svg" xmlns:xlink="http://www.w3.org/1999/xlink" x="0px" y="0px"
	 width="96px" height="96px" viewBox="0 0 96 96" enable-background="new 0 0 96 96" xml:space="preserve">
<g>
	<path fill="#F6AABE" d="M68.209,94.682H10.054c-5.396,0-9.819-4.277-9.984-9.562v0.973c0,5.428,4.5,9.868,10,9.868h58.134
		l-0.031-1.259L68.209,94.682z"/>
	<path fill="#EC93AB" d="M96.049,84.816c0,5.426-4.5,9.865-10,9.865H68.203l-0.036,0.02l0.031,1.259l17.876-0.001h0.397
		c4.39,0,8.103-3.086,9.223-7.254c0.226-0.834,0.354-1.707,0.354-2.612V84.816z"/>
	<g>
		<path fill="#E7275A" d="M96.059,84.816c0,5.426-4.5,9.865-10,9.865h-76c-5.5,0-10-4.439-10-9.865V9.826
			c0-5.426,4.5-9.866,10-9.866h76c5.5,0,10,4.44,10,9.866V84.816z"/>
		<path fill="none" d="M43.318,36.281c0.352,0.043,0.696,0.103,1.034,0.176c0.396,0.099,0.763,0.215,1.101,0.348
			c0.338,0.129,0.608,0.275,0.814,0.433c0.455,0.29,0.889,0.655,1.299,1.097c0.409,0.442,0.791,0.944,1.143,1.508h0.684
			c-0.043-0.13-0.109-0.289-0.199-0.477c-0.085-0.188-0.159-0.398-0.22-0.631c-0.073-0.172-0.149-0.33-0.229-0.467
			c-0.081-0.137-0.137-0.25-0.165-0.336c0.145-0.305,0.388-0.535,0.726-0.694c0.338-0.157,0.77-0.239,1.299-0.239h0.549
			c0.705,0.015,1.318-0.084,1.837-0.291c0.521-0.211,0.944-0.506,1.267-0.883c0.47-0.447,0.895-0.913,1.276-1.4
			c0.382-0.484,0.704-0.986,0.968-1.508h-0.044c0.074-0.203,0-0.326-0.22-0.369c-0.145,0-0.25,0.096-0.308,0.281
			c-0.059,0.131-0.19,0.291-0.396,0.479c-0.206,0.189-0.515,0.404-0.924,0.651c-0.41,0.261-0.806,0.456-1.188,0.585
			c-0.383,0.131-0.719,0.211-1.014,0.241c-0.438,0.058-1.078,0.086-1.914,0.086c-0.526,0.086-0.986,0.329-1.375,0.729
			c-0.388,0.396-0.723,0.92-1.002,1.572c-0.293-0.578-0.619-1.055-0.979-1.434c-0.358-0.375-0.736-0.688-1.134-0.934
			c-0.629-0.391-1.306-0.556-2.023-0.499c-0.969,0.073-1.652,0.709-2.047,1.911h0.505C42.674,36.217,42.966,36.238,43.318,36.281z"
			/>
		<polygon fill="none" points="41.041,41.489 41.041,39.507 32.396,39.507 32.396,41.94 36.76,41.94 32.229,47.107 32.229,49.091 
			41.138,49.091 41.138,46.656 36.51,46.656 		"/>
		<path fill="none" d="M54.273,42.664v-1.052h-3.117v7.479h3.117v-3.704c0-0.727,0.374-1.204,0.956-1.204
			c0.513,0,0.859,0.396,0.859,1.024v3.884h3.117v-3.704c0-0.727,0.374-1.204,0.956-1.204c0.513,0,0.859,0.396,0.859,1.024v3.884
			h3.117v-4.771c0-1.722-1.109-2.844-2.675-2.844c-1.136,0-1.995,0.587-2.479,1.599c-0.402-0.997-1.303-1.599-2.451-1.599
			C55.549,41.476,54.787,41.913,54.273,42.664z"/>
		<path fill="#C0254E" d="M96.059,84.761V51.539l-23.05-21.69c3.212,3.776,5.087,8.321,5.087,13.212
			c0,5.889-2.722,11.271-7.217,15.42h0.008l-0.033,0.021c-2.021,1.859-4.108,3.631-6.773,5.303L46.145,75.249l21.953,19.378h17.961
			C91.559,94.627,96.059,90.187,96.059,84.761z"/>
		<path fill="none" d="M50.187,45.344c0-2.338-1.677-3.841-4.282-3.841c-2.604,0-4.281,1.503-4.281,3.841s1.678,3.855,4.281,3.855
			C48.51,49.199,50.187,47.682,50.187,45.344z M46,46.774c-0.687,0-1.126-0.568-1.126-1.435c0-0.868,0.439-1.438,1.126-1.438
			s1.126,0.569,1.126,1.438C47.126,46.206,46.687,46.774,46,46.774z"/>
		<path fill="#FFFFFF" d="M70.854,58.557l0.033-0.021h-0.008c4.495-4.148,7.217-9.532,7.217-15.42c0-4.891-1.875-9.436-5.087-13.212
			c-5.393-6.339-14.554-10.511-24.95-10.511c-16.589,0-30.037,10.621-30.037,23.723c0,12.756,12.744,23.154,28.726,23.697
			l-0.603,8.437l17.936-11.39C66.745,62.188,68.832,60.416,70.854,58.557z M58.984,43.074c0.484-1.012,1.344-1.599,2.479-1.599
			c1.565,0,2.675,1.122,2.675,2.844v4.771h-3.117v-3.884c0-0.629-0.347-1.024-0.859-1.024c-0.582,0-0.956,0.478-0.956,1.204v3.704
			h-3.117v-3.884c0-0.629-0.347-1.024-0.859-1.024c-0.582,0-0.956,0.478-0.956,1.204v3.704h-3.117v-7.479h3.117v1.052
			c0.514-0.751,1.275-1.188,2.26-1.188C57.682,41.476,58.582,42.077,58.984,43.074z M43.979,34.306
			c0.718-0.057,1.395,0.108,2.023,0.499c0.397,0.246,0.775,0.559,1.134,0.934c0.36,0.379,0.687,0.855,0.979,1.434
			c0.279-0.652,0.614-1.176,1.002-1.572c0.389-0.4,0.849-0.644,1.375-0.729c0.836,0,1.476-0.028,1.914-0.086
			c0.295-0.03,0.631-0.11,1.014-0.241c0.383-0.129,0.778-0.324,1.188-0.585c0.409-0.247,0.718-0.462,0.924-0.651
			c0.206-0.188,0.338-0.348,0.396-0.479c0.058-0.186,0.163-0.281,0.308-0.281c0.22,0.043,0.294,0.166,0.22,0.369H56.5
			c-0.264,0.521-0.586,1.023-0.968,1.508c-0.382,0.487-0.807,0.953-1.276,1.4c-0.322,0.377-0.745,0.672-1.267,0.883
			c-0.519,0.207-1.132,0.306-1.837,0.291h-0.549c-0.529,0-0.961,0.082-1.299,0.239c-0.338,0.159-0.581,0.39-0.726,0.694
			c0.028,0.086,0.084,0.199,0.165,0.336c0.08,0.137,0.156,0.295,0.229,0.467c0.061,0.232,0.135,0.442,0.22,0.631
			c0.09,0.188,0.156,0.347,0.199,0.477h-0.684c-0.352-0.563-0.733-1.065-1.143-1.508c-0.41-0.441-0.844-0.807-1.299-1.097
			c-0.206-0.157-0.477-0.304-0.814-0.433c-0.338-0.133-0.705-0.249-1.101-0.348c-0.338-0.073-0.683-0.133-1.034-0.176
			c-0.353-0.043-0.645-0.064-0.882-0.064h-0.505C42.326,35.015,43.01,34.379,43.979,34.306z M41.138,49.091h-8.909v-1.983
			l4.531-5.167h-4.364v-2.434h8.646v1.982l-4.531,5.167h4.628V49.091z M45.904,49.199c-2.604,0-4.281-1.518-4.281-3.855
			s1.678-3.841,4.281-3.841c2.605,0,4.282,1.503,4.282,3.841S48.51,49.199,45.904,49.199z"/>
		<path fill="#FFFFFF" d="M46,43.902c-0.687,0-1.126,0.569-1.126,1.438c0,0.866,0.439,1.435,1.126,1.435s1.126-0.568,1.126-1.435
			C47.126,44.472,46.687,43.902,46,43.902z"/>
	</g>
</g>
</svg>
