<?xml version="1.0" encoding="utf-8"?>
<!-- Generator: Adobe Illustrator 16.2.1, SVG Export Plug-In . SVG Version: 6.00 Build 0)  -->
<!DOCTYPE svg PUBLIC "-//W3C//DTD SVG 1.1//EN" "http://www.w3.org/Graphics/SVG/1.1/DTD/svg11.dtd">
<svg version="1.1" id="Layer_1" xmlns="http://www.w3.org/2000/svg" xmlns:xlink="http://www.w3.org/1999/xlink" x="0px" y="0px"
	 width="48px" height="48px" viewBox="0 0 48 48" enable-background="new 0 0 48 48" xml:space="preserve">
<g>
	<path fill="#F6AABE" d="M34.076,47.36H4.998c-2.698,0-4.909-2.139-4.992-4.781v0.486c0,2.715,2.25,4.935,5,4.935h29.067
		l-0.016-0.63L34.076,47.36z"/>
	<path fill="#EC93AB" d="M47.996,42.429c0,2.713-2.25,4.932-5,4.932h-8.923l-0.019,0.01L34.07,48l8.938-0.001h0.199
		c2.195,0,4.051-1.543,4.611-3.627c0.113-0.416,0.178-0.854,0.178-1.306V42.429z"/>
	<g>
		<path fill="#E7275A" d="M48,42.429c0,2.713-2.25,4.932-5,4.932H5c-2.75,0-5-2.219-5-4.932V4.933C0,2.22,2.25,0,5,0h38
			c2.75,0,5,2.22,5,4.933V42.429z"/>
		<path fill="none" d="M21.631,18.161c0.176,0.021,0.348,0.051,0.517,0.088c0.198,0.049,0.382,0.107,0.551,0.174
			c0.169,0.064,0.304,0.137,0.407,0.216c0.227,0.146,0.444,0.327,0.648,0.548c0.205,0.222,0.396,0.473,0.572,0.754h0.342
			c-0.021-0.064-0.055-0.145-0.1-0.238c-0.043-0.094-0.08-0.199-0.109-0.314c-0.037-0.086-0.076-0.166-0.115-0.234
			c-0.041-0.068-0.068-0.125-0.083-0.168c0.073-0.152,0.194-0.268,0.363-0.347s0.384-0.12,0.649-0.12h0.273
			c0.354,0.008,0.66-0.041,0.92-0.145c0.26-0.105,0.471-0.254,0.633-0.441c0.234-0.225,0.447-0.457,0.638-0.701
			c0.191-0.242,0.353-0.492,0.484-0.754h-0.022c0.037-0.102,0-0.162-0.109-0.184c-0.072,0-0.125,0.047-0.154,0.141
			c-0.029,0.064-0.096,0.145-0.198,0.238c-0.103,0.096-0.257,0.203-0.462,0.326c-0.205,0.131-0.402,0.229-0.594,0.293
			s-0.359,0.105-0.507,0.12c-0.22,0.028-0.539,0.043-0.957,0.043c-0.263,0.043-0.493,0.165-0.688,0.364s-0.362,0.461-0.501,0.787
			c-0.146-0.289-0.311-0.527-0.49-0.717c-0.18-0.188-0.368-0.344-0.566-0.467c-0.314-0.195-0.653-0.278-1.012-0.25
			c-0.484,0.037-0.826,0.354-1.023,0.955h0.252C21.309,18.128,21.455,18.14,21.631,18.161z"/>
		<polygon fill="none" points="20.492,20.765 20.492,19.773 16.17,19.773 16.17,20.99 18.352,20.99 16.086,23.573 16.086,24.565 
			20.541,24.565 20.541,23.349 18.227,23.349 		"/>
		<path fill="none" d="M27.108,21.353v-0.526H25.55v3.739h1.559v-1.852c0-0.363,0.187-0.603,0.478-0.603
			c0.257,0,0.43,0.198,0.43,0.513v1.941h1.559v-1.852c0-0.363,0.188-0.603,0.479-0.603c0.256,0,0.43,0.198,0.43,0.513v1.941h1.559
			V22.18c0-0.86-0.555-1.422-1.338-1.422c-0.567,0-0.997,0.294-1.239,0.8c-0.202-0.499-0.651-0.8-1.226-0.8
			C27.746,20.758,27.365,20.977,27.108,21.353z"/>
		<path fill="#C0254E" d="M48,42.4V25.79L36.476,14.944c1.606,1.889,2.544,4.16,2.544,6.605c0,2.945-1.361,5.636-3.609,7.711h0.004
			l-0.016,0.01c-1.012,0.93-2.055,1.816-3.387,2.652l-8.969,5.722l10.977,9.688H43C45.75,47.333,48,45.113,48,42.4z"/>
		<path fill="none" d="M25.064,22.692c0-1.17-0.838-1.921-2.141-1.921s-2.141,0.751-2.141,1.921c0,1.168,0.838,1.928,2.141,1.928
			S25.064,23.86,25.064,22.692z M22.972,23.407c-0.344,0-0.563-0.284-0.563-0.717c0-0.435,0.22-0.719,0.563-0.719
			c0.343,0,0.562,0.284,0.562,0.719C23.534,23.123,23.314,23.407,22.972,23.407z"/>
		<path fill="#FFFFFF" d="M35.398,29.298l0.016-0.01H35.41c2.248-2.074,3.609-4.767,3.609-7.711c0-2.445-0.938-4.717-2.544-6.605
			C33.779,11.802,29.199,9.716,24,9.716c-8.294,0-15.018,5.311-15.018,11.861c0,6.379,6.372,11.578,14.363,11.85l-0.303,4.218
			l8.969-5.694C33.344,31.114,34.387,30.228,35.398,29.298z M29.464,21.558c0.242-0.506,0.672-0.8,1.239-0.8
			c0.783,0,1.338,0.562,1.338,1.422v2.386h-1.559v-1.941c0-0.314-0.174-0.513-0.43-0.513c-0.291,0-0.479,0.239-0.479,0.603v1.852
			h-1.559v-1.941c0-0.314-0.173-0.513-0.43-0.513c-0.291,0-0.478,0.239-0.478,0.603v1.852H25.55v-3.739h1.559v0.526
			c0.257-0.376,0.638-0.595,1.13-0.595C28.812,20.758,29.262,21.059,29.464,21.558z M21.961,17.173
			c0.358-0.028,0.697,0.055,1.012,0.25c0.198,0.123,0.387,0.279,0.566,0.467c0.18,0.189,0.344,0.428,0.49,0.717
			c0.139-0.326,0.307-0.588,0.501-0.787s0.425-0.321,0.688-0.364c0.418,0,0.737-0.015,0.957-0.043
			c0.147-0.015,0.315-0.056,0.507-0.12s0.389-0.162,0.594-0.293c0.205-0.123,0.359-0.23,0.462-0.326
			c0.103-0.094,0.169-0.174,0.198-0.238c0.029-0.094,0.082-0.141,0.154-0.141c0.109,0.021,0.146,0.082,0.109,0.184h0.022
			c-0.132,0.262-0.293,0.512-0.484,0.754c-0.19,0.244-0.403,0.477-0.638,0.701c-0.162,0.188-0.373,0.336-0.633,0.441
			c-0.26,0.104-0.566,0.152-0.92,0.145h-0.273c-0.266,0-0.48,0.041-0.649,0.12s-0.29,0.194-0.363,0.347
			c0.015,0.043,0.042,0.1,0.083,0.168c0.039,0.068,0.078,0.148,0.115,0.234c0.029,0.115,0.066,0.221,0.109,0.314
			c0.045,0.094,0.078,0.174,0.1,0.238h-0.342c-0.176-0.281-0.367-0.532-0.572-0.754c-0.204-0.221-0.422-0.402-0.648-0.548
			c-0.104-0.079-0.238-0.151-0.407-0.216c-0.169-0.066-0.353-0.125-0.551-0.174c-0.169-0.037-0.341-0.066-0.517-0.088
			s-0.322-0.033-0.441-0.033h-0.252C21.135,17.527,21.477,17.21,21.961,17.173z M20.541,24.565h-4.455v-0.992l2.266-2.583H16.17
			v-1.217h4.322v0.991l-2.266,2.584h2.314V24.565z M22.924,24.62c-1.303,0-2.141-0.76-2.141-1.928c0-1.17,0.838-1.921,2.141-1.921
			s2.141,0.751,2.141,1.921C25.064,23.86,24.227,24.62,22.924,24.62z"/>
		<path fill="#FFFFFF" d="M22.972,21.972c-0.344,0-0.563,0.284-0.563,0.719c0,0.433,0.22,0.717,0.563,0.717
			c0.343,0,0.562-0.284,0.562-0.717C23.534,22.256,23.314,21.972,22.972,21.972z"/>
	</g>
</g>
</svg>
