<?xml version="1.0" encoding="utf-8"?>
<!-- Generator: Adobe Illustrator 16.2.1, SVG Export Plug-In . SVG Version: 6.00 Build 0)  -->
<!DOCTYPE svg PUBLIC "-//W3C//DTD SVG 1.1//EN" "http://www.w3.org/Graphics/SVG/1.1/DTD/svg11.dtd">
<svg version="1.1" id="Layer_1" xmlns="http://www.w3.org/2000/svg" xmlns:xlink="http://www.w3.org/1999/xlink" x="0px" y="0px"
	 width="192px" height="192px" viewBox="0 0 192 192" enable-background="new 0 0 192 192" xml:space="preserve">
<g>
	<path fill="#F6AABE" d="M136.299,189.444H19.989c-10.793,0-19.638-8.555-19.968-19.127v1.947c0,10.854,9,19.735,20,19.735h116.269
		l-0.062-2.517L136.299,189.444z"/>
	<path fill="#EC93AB" d="M191.98,169.712c0,10.852-9,19.732-20,19.732h-35.691l-0.072,0.039l0.062,2.517l35.752-0.001h0.795
		c8.777,0,16.205-6.174,18.445-14.508c0.449-1.669,0.709-3.415,0.709-5.226V169.712z"/>
	<g>
		<path fill="#E7275A" d="M192,169.712c0,10.852-9,19.732-20,19.732H20c-11,0-20-8.881-20-19.732V19.733C0,8.881,9,0,20,0h152
			c11,0,20,8.881,20,19.733V169.712z"/>
		<path fill="none" d="M86.519,72.644c0.702,0.085,1.394,0.204,2.069,0.351c0.79,0.197,1.526,0.43,2.201,0.695
			c0.676,0.258,1.216,0.551,1.627,0.865c0.912,0.581,1.779,1.31,2.599,2.192c0.819,0.886,1.583,1.89,2.285,3.017h1.367
			c-0.087-0.26-0.22-0.578-0.397-0.953c-0.171-0.377-0.319-0.797-0.44-1.261c-0.146-0.344-0.298-0.66-0.459-0.934
			s-0.272-0.5-0.33-0.672c0.289-0.609,0.775-1.071,1.451-1.39c0.675-0.314,1.539-0.479,2.598-0.479h1.098
			c1.411,0.029,2.636-0.168,3.674-0.582c1.043-0.422,1.89-1.011,2.533-1.765c0.94-0.895,1.788-1.827,2.553-2.802
			c0.765-0.968,1.408-1.972,1.937-3.017h-0.088c0.148-0.406,0-0.652-0.44-0.737c-0.29,0-0.501,0.19-0.614,0.563
			c-0.117,0.262-0.382,0.58-0.794,0.956c-0.411,0.378-1.028,0.808-1.847,1.303c-0.82,0.521-1.613,0.912-2.379,1.17
			c-0.764,0.262-1.438,0.422-2.025,0.482c-0.877,0.116-2.156,0.172-3.828,0.172c-1.054,0.172-1.973,0.659-2.75,1.458
			c-0.776,0.793-1.445,1.841-2.004,3.146c-0.588-1.156-1.238-2.11-1.959-2.868c-0.717-0.75-1.474-1.373-2.268-1.866
			c-1.26-0.781-2.612-1.111-4.048-0.998c-1.937,0.146-3.304,1.418-4.095,3.821h1.011C85.229,72.513,85.813,72.558,86.519,72.644z"/>
		<polygon fill="none" points="81.964,83.059 81.964,79.094 64.673,79.094 64.673,83.961 73.401,83.961 64.34,94.295 64.34,98.262 
			82.158,98.262 82.158,93.393 72.902,93.393 		"/>
		<path fill="none" d="M108.43,85.409v-2.104h-6.235v14.957h6.235v-7.409c0-1.452,0.747-2.407,1.912-2.407
			c1.025,0,1.718,0.791,1.718,2.05v7.767h6.234v-7.409c0-1.452,0.747-2.407,1.912-2.407c1.026,0,1.718,0.791,1.718,2.05v7.767h6.234
			v-9.543c0-3.444-2.217-5.688-5.348-5.688c-2.271,0-3.99,1.174-4.96,3.198c-0.804-1.995-2.604-3.198-4.903-3.198
			C110.979,83.031,109.455,83.906,108.43,85.409z"/>
		<path fill="#C0254E" d="M192,169.602v-66.443l-46.101-43.381c6.423,7.554,10.175,16.642,10.175,26.425
			c0,11.776-5.443,22.54-14.434,30.838h0.016l-0.066,0.043c-4.043,3.72-8.217,7.262-13.549,10.607l-35.87,22.888l43.907,38.756H172
			C183,189.334,192,180.453,192,169.602z"/>
		<path fill="none" d="M100.255,90.769c0-4.676-3.354-7.683-8.563-7.683c-5.209,0-8.562,3.007-8.562,7.683s3.354,7.71,8.562,7.71
			C96.901,98.479,100.255,95.444,100.255,90.769z M91.882,93.629c-1.374,0-2.252-1.137-2.252-2.87c0-1.735,0.879-2.874,2.252-2.874
			c1.373,0,2.251,1.139,2.251,2.874C94.134,92.492,93.255,93.629,91.882,93.629z"/>
		<path fill="#FFFFFF" d="M141.59,117.192l0.066-0.043h-0.016c8.99-8.297,14.434-19.063,14.434-30.838
			c0-9.783-3.752-18.871-10.175-26.425C135.115,47.209,116.793,38.865,96,38.865c-33.178,0-60.075,21.242-60.075,47.446
			c0,25.51,25.489,46.309,57.451,47.395l-1.205,16.872l35.87-22.778C133.373,124.455,137.547,120.912,141.59,117.192z
			 M117.851,86.229c0.97-2.024,2.688-3.198,4.96-3.198c3.131,0,5.348,2.243,5.348,5.688v9.543h-6.234v-7.767
			c0-1.259-0.691-2.05-1.718-2.05c-1.165,0-1.912,0.955-1.912,2.407v7.409h-6.234v-7.767c0-1.259-0.692-2.05-1.718-2.05
			c-1.165,0-1.912,0.955-1.912,2.407v7.409h-6.235V83.305h6.235v2.104c1.025-1.503,2.549-2.378,4.518-2.378
			C115.246,83.031,117.047,84.234,117.851,86.229z M87.839,68.691c1.436-0.113,2.788,0.217,4.048,0.998
			c0.794,0.493,1.551,1.116,2.268,1.866c0.721,0.758,1.371,1.712,1.959,2.868c0.559-1.305,1.228-2.353,2.004-3.146
			c0.777-0.799,1.696-1.286,2.75-1.458c1.672,0,2.951-0.056,3.828-0.172c0.588-0.061,1.262-0.221,2.025-0.482
			c0.766-0.258,1.559-0.648,2.379-1.17c0.818-0.495,1.436-0.925,1.847-1.303c0.412-0.376,0.677-0.694,0.794-0.956
			c0.113-0.373,0.324-0.563,0.614-0.563c0.44,0.085,0.589,0.331,0.44,0.737h0.088c-0.528,1.045-1.172,2.049-1.937,3.017
			c-0.765,0.975-1.612,1.907-2.553,2.802c-0.644,0.754-1.49,1.343-2.533,1.765c-1.038,0.414-2.263,0.611-3.674,0.582h-1.098
			c-1.059,0-1.923,0.164-2.598,0.479c-0.676,0.318-1.162,0.78-1.451,1.39c0.058,0.172,0.169,0.398,0.33,0.672
			s0.313,0.59,0.459,0.934c0.121,0.464,0.27,0.884,0.44,1.261c0.178,0.375,0.311,0.693,0.397,0.953H97.3
			c-0.702-1.127-1.466-2.131-2.285-3.017c-0.82-0.883-1.687-1.611-2.599-2.192c-0.411-0.314-0.952-0.607-1.627-0.865
			c-0.675-0.266-1.412-0.498-2.201-0.695c-0.675-0.146-1.367-0.266-2.069-0.351c-0.705-0.086-1.289-0.131-1.764-0.131h-1.011
			C84.535,70.109,85.902,68.838,87.839,68.691z M82.158,98.262H64.34v-3.967l9.062-10.334h-8.729v-4.867h17.291v3.965l-9.062,10.334
			h9.255V98.262z M91.691,98.479c-5.209,0-8.562-3.034-8.562-7.71s3.354-7.683,8.562-7.683c5.21,0,8.563,3.007,8.563,7.683
			S96.901,98.479,91.691,98.479z"/>
		<path fill="#FFFFFF" d="M91.882,87.885c-1.374,0-2.252,1.139-2.252,2.874c0,1.733,0.879,2.87,2.252,2.87
			c1.373,0,2.251-1.137,2.251-2.87C94.134,89.023,93.255,87.885,91.882,87.885z"/>
	</g>
</g>
</svg>
