<?xml version="1.0" encoding="utf-8"?>
<!-- Generator: Adobe Illustrator 16.2.1, SVG Export Plug-In . SVG Version: 6.00 Build 0)  -->
<!DOCTYPE svg PUBLIC "-//W3C//DTD SVG 1.1//EN" "http://www.w3.org/Graphics/SVG/1.1/DTD/svg11.dtd">
<svg version="1.1" id="Layer_1" xmlns="http://www.w3.org/2000/svg" xmlns:xlink="http://www.w3.org/1999/xlink" x="0px" y="0px"
	 width="144px" height="144px" viewBox="0 0 144 144" enable-background="new 0 0 144 144" xml:space="preserve">
<g>
	<path fill="#F6AABE" d="M102.004,142.043H14.771c-8.095,0-14.729-6.416-14.977-14.345v1.46c0,8.141,6.75,14.802,15,14.802h87.201
		l-0.047-1.888L102.004,142.043z"/>
	<path fill="#EC93AB" d="M143.765,127.244c0,8.139-6.75,14.799-15,14.799h-26.769l-0.055,0.029l0.047,1.888l26.814-0.001h0.596
		c6.584,0,12.154-4.63,13.834-10.881c0.338-1.252,0.532-2.561,0.532-3.919V127.244z"/>
	<g>
		<path fill="#E7275A" d="M143.779,127.244c0,8.139-6.75,14.799-15,14.799h-114c-8.25,0-15-6.66-15-14.799V14.76
			c0-8.139,6.75-14.8,15-14.8h114c8.25,0,15,6.661,15,14.8V127.244z"/>
		<path fill="none" d="M64.668,54.442c0.527,0.064,1.045,0.153,1.552,0.263c0.593,0.148,1.145,0.322,1.651,0.521
			c0.507,0.193,0.912,0.413,1.221,0.649c0.684,0.436,1.334,0.982,1.948,1.645c0.614,0.664,1.188,1.417,1.714,2.262h1.025
			c-0.064-0.195-0.164-0.434-0.298-0.715c-0.128-0.283-0.239-0.598-0.33-0.946c-0.109-0.258-0.224-0.495-0.345-0.7
			s-0.204-0.375-0.247-0.504c0.217-0.457,0.581-0.803,1.088-1.042c0.507-0.236,1.154-0.359,1.948-0.359h0.823
			c1.059,0.022,1.978-0.126,2.756-0.437c0.782-0.316,1.417-0.758,1.899-1.324c0.705-0.671,1.342-1.37,1.915-2.101
			c0.573-0.726,1.056-1.479,1.452-2.262h-0.066c0.111-0.305,0-0.489-0.33-0.553c-0.217,0-0.375,0.143-0.461,0.422
			c-0.088,0.196-0.286,0.436-0.595,0.717c-0.309,0.284-0.771,0.606-1.386,0.977c-0.615,0.391-1.209,0.684-1.783,0.877
			c-0.573,0.196-1.078,0.316-1.52,0.362c-0.658,0.087-1.617,0.129-2.871,0.129c-0.79,0.129-1.479,0.494-2.062,1.094
			c-0.582,0.595-1.084,1.38-1.503,2.359c-0.44-0.867-0.929-1.583-1.47-2.151c-0.537-0.562-1.104-1.03-1.7-1.4
			c-0.944-0.586-1.959-0.833-3.036-0.749c-1.453,0.11-2.478,1.063-3.071,2.866h0.758C63.701,54.345,64.14,54.378,64.668,54.442z"/>
		<polygon fill="none" points="61.252,62.254 61.252,59.28 48.284,59.28 48.284,62.931 54.83,62.931 48.034,70.681 48.034,73.656 
			61.397,73.656 61.397,70.004 54.456,70.004 		"/>
		<path fill="none" d="M81.102,64.017v-1.578h-4.677v11.218h4.677V68.1c0-1.089,0.561-1.806,1.434-1.806
			c0.77,0,1.289,0.593,1.289,1.537v5.825H88.5V68.1c0-1.089,0.561-1.806,1.434-1.806c0.77,0,1.289,0.593,1.289,1.537v5.825h4.676
			v-7.157c0-2.583-1.663-4.266-4.012-4.266c-1.703,0-2.992,0.88-3.72,2.398c-0.603-1.496-1.953-2.398-3.677-2.398
			C83.014,62.233,81.871,62.89,81.102,64.017z"/>
		<path fill="#C0254E" d="M143.779,127.161V77.328l-34.575-32.535c4.817,5.665,7.631,12.481,7.631,19.818
			c0,8.832-4.083,16.905-10.825,23.129h0.012l-0.05,0.032c-3.032,2.79-6.163,5.446-10.161,7.955l-26.902,17.166l32.93,29.067h26.941
			C137.029,141.961,143.779,135.3,143.779,127.161z"/>
		<path fill="none" d="M74.971,68.036c0-3.507-2.516-5.762-6.423-5.762c-3.907,0-6.422,2.255-6.422,5.762s2.515,5.782,6.422,5.782
			C72.455,73.818,74.971,71.543,74.971,68.036z M68.691,70.182c-1.03,0-1.689-0.853-1.689-2.152c0-1.302,0.659-2.156,1.689-2.156
			c1.029,0,1.688,0.854,1.688,2.156C70.38,69.329,69.721,70.182,68.691,70.182z"/>
		<path fill="#FFFFFF" d="M105.972,87.854l0.05-0.032h-0.012c6.742-6.223,10.825-14.298,10.825-23.129
			c0-7.337-2.813-14.153-7.631-19.818c-8.089-9.508-21.83-15.766-37.425-15.766c-24.884,0-45.057,15.932-45.057,35.584
			c0,19.133,19.117,34.731,43.089,35.546l-0.903,12.654L95.811,95.81C99.809,93.301,102.939,90.645,105.972,87.854z M88.167,64.632
			c0.728-1.518,2.017-2.398,3.72-2.398c2.349,0,4.012,1.683,4.012,4.266v7.157h-4.676v-5.825c0-0.944-0.52-1.537-1.289-1.537
			c-0.873,0-1.434,0.716-1.434,1.806v5.557h-4.676v-5.825c0-0.944-0.52-1.537-1.289-1.537c-0.873,0-1.434,0.716-1.434,1.806v5.557
			h-4.677V62.438h4.677v1.578c0.77-1.127,1.912-1.783,3.389-1.783C86.214,62.233,87.564,63.136,88.167,64.632z M65.658,51.479
			c1.077-0.085,2.092,0.163,3.036,0.749c0.596,0.37,1.163,0.837,1.7,1.4c0.541,0.568,1.029,1.284,1.47,2.151
			c0.419-0.979,0.921-1.764,1.503-2.359c0.583-0.6,1.272-0.965,2.062-1.094c1.254,0,2.213-0.042,2.871-0.129
			c0.441-0.045,0.946-0.166,1.52-0.362c0.574-0.193,1.168-0.486,1.783-0.877c0.614-0.371,1.077-0.693,1.386-0.977
			c0.309-0.282,0.507-0.521,0.595-0.717c0.086-0.279,0.244-0.422,0.461-0.422c0.33,0.064,0.441,0.249,0.33,0.553h0.066
			c-0.396,0.783-0.879,1.536-1.452,2.262c-0.573,0.731-1.21,1.43-1.915,2.101c-0.482,0.565-1.117,1.007-1.899,1.324
			c-0.778,0.311-1.697,0.458-2.756,0.437h-0.823c-0.794,0-1.441,0.123-1.948,0.359c-0.507,0.239-0.871,0.585-1.088,1.042
			c0.043,0.129,0.126,0.299,0.247,0.504s0.235,0.442,0.345,0.7c0.091,0.348,0.202,0.663,0.33,0.946
			c0.134,0.281,0.233,0.52,0.298,0.715h-1.025c-0.526-0.845-1.1-1.598-1.714-2.262c-0.614-0.662-1.265-1.209-1.948-1.645
			c-0.309-0.236-0.714-0.456-1.221-0.649c-0.507-0.199-1.059-0.374-1.651-0.521c-0.507-0.11-1.025-0.199-1.552-0.263
			c-0.528-0.064-0.967-0.098-1.322-0.098h-0.758C63.181,52.542,64.206,51.588,65.658,51.479z M61.397,73.656H48.034v-2.975
			l6.796-7.75h-6.546v-3.65h12.968v2.974l-6.796,7.75h6.941V73.656z M68.548,73.818c-3.907,0-6.422-2.275-6.422-5.782
			s2.515-5.762,6.422-5.762c3.907,0,6.423,2.255,6.423,5.762S72.455,73.818,68.548,73.818z"/>
		<path fill="#FFFFFF" d="M68.691,65.874c-1.03,0-1.689,0.854-1.689,2.156c0,1.3,0.659,2.152,1.689,2.152
			c1.029,0,1.688-0.853,1.688-2.152C70.38,66.728,69.721,65.874,68.691,65.874z"/>
	</g>
</g>
</svg>
