<?xml version="1.0" encoding="utf-8"?>
<!-- Generator: Adobe Illustrator 16.2.1, SVG Export Plug-In . SVG Version: 6.00 Build 0)  -->
<!DOCTYPE svg PUBLIC "-//W3C//DTD SVG 1.1//EN" "http://www.w3.org/Graphics/SVG/1.1/DTD/svg11.dtd">
<svg version="1.1" id="Layer_1" xmlns="http://www.w3.org/2000/svg" xmlns:xlink="http://www.w3.org/1999/xlink" x="0px" y="0px"
	 width="72px" height="72px" viewBox="0 0 72 72" enable-background="new 0 0 72 72" xml:space="preserve">
<g>
	<path fill="#F6AABE" d="M51.113,71.041H7.497c-4.048,0-7.364-3.208-7.488-7.172v0.729c0,4.071,3.375,7.401,7.5,7.401h43.601
		l-0.023-0.944L51.113,71.041z"/>
	<path fill="#EC93AB" d="M71.993,63.643c0,4.069-3.375,7.398-7.5,7.398H51.109l-0.027,0.015L51.105,72l13.406-0.001h0.299
		c3.292,0,6.076-2.314,6.917-5.44c0.169-0.625,0.266-1.28,0.266-1.959V63.643z"/>
	<g>
		<path fill="#E7275A" d="M72,63.643c0,4.069-3.375,7.398-7.5,7.398h-57c-4.125,0-7.5-3.329-7.5-7.398V7.399C0,3.33,3.375,0,7.5,0
			h57C68.625,0,72,3.33,72,7.399V63.643z"/>
		<path fill="none" d="M32.445,27.241c0.264,0.032,0.522,0.077,0.775,0.132c0.297,0.074,0.572,0.161,0.826,0.261
			c0.253,0.097,0.456,0.206,0.61,0.324c0.341,0.218,0.667,0.491,0.974,0.822c0.308,0.332,0.594,0.708,0.857,1.131h0.513
			c-0.032-0.097-0.082-0.217-0.149-0.357c-0.063-0.142-0.119-0.299-0.164-0.473c-0.056-0.129-0.113-0.248-0.173-0.351
			c-0.061-0.103-0.103-0.188-0.124-0.252c0.109-0.229,0.291-0.401,0.545-0.521c0.253-0.118,0.576-0.18,0.974-0.18h0.411
			c0.529,0.011,0.989-0.062,1.379-0.218c0.391-0.158,0.707-0.38,0.949-0.662c0.353-0.336,0.671-0.686,0.957-1.051
			c0.287-0.363,0.528-0.739,0.727-1.131h-0.033c0.056-0.152,0-0.244-0.165-0.276c-0.108,0-0.188,0.071-0.23,0.211
			c-0.044,0.098-0.144,0.218-0.298,0.358c-0.154,0.143-0.386,0.304-0.692,0.488c-0.308,0.196-0.604,0.343-0.892,0.439
			c-0.287,0.098-0.539,0.158-0.76,0.181c-0.329,0.043-0.809,0.064-1.436,0.064c-0.395,0.064-0.74,0.247-1.031,0.547
			c-0.291,0.298-0.543,0.69-0.752,1.18c-0.22-0.434-0.465-0.791-0.734-1.075c-0.27-0.281-0.553-0.516-0.851-0.7
			c-0.472-0.293-0.979-0.417-1.518-0.374c-0.727,0.055-1.239,0.531-1.535,1.433h0.379C31.962,27.192,32.182,27.209,32.445,27.241z"
			/>
		<polygon fill="none" points="30.737,31.146 30.737,29.66 24.254,29.66 24.254,31.485 27.526,31.485 24.128,35.36 24.128,36.848 
			30.811,36.848 30.811,35.022 27.339,35.022 		"/>
		<path fill="none" d="M40.662,32.028v-0.789h-2.338v5.608h2.338V34.07c0-0.545,0.28-0.903,0.717-0.903
			c0.385,0,0.645,0.297,0.645,0.769v2.912h2.338V34.07c0-0.545,0.28-0.903,0.717-0.903c0.385,0,0.645,0.297,0.645,0.769v2.912h2.338
			V33.27c0-1.291-0.832-2.133-2.006-2.133c-0.852,0-1.496,0.44-1.859,1.199c-0.303-0.748-0.978-1.199-1.839-1.199
			C41.618,31.137,41.047,31.465,40.662,32.028z"/>
		<path fill="#C0254E" d="M72,63.601V38.685L54.713,22.416c2.409,2.833,3.815,6.241,3.815,9.909c0,4.417-2.041,8.453-5.413,11.565
			h0.006l-0.024,0.016c-1.517,1.395-3.081,2.724-5.08,3.978l-13.452,8.583L51.029,71H64.5C68.625,71,72,67.67,72,63.601z"/>
		<path fill="none" d="M37.597,34.038c0-1.754-1.258-2.881-3.212-2.881c-1.953,0-3.211,1.127-3.211,2.881
			c0,1.753,1.258,2.892,3.211,2.892C36.339,36.93,37.597,35.791,37.597,34.038z M34.457,35.111c-0.516,0-0.845-0.427-0.845-1.076
			c0-0.651,0.329-1.078,0.845-1.078c0.515,0,0.844,0.427,0.844,1.078C35.301,34.685,34.972,35.111,34.457,35.111z"/>
		<path fill="#FFFFFF" d="M53.097,43.947l0.024-0.016h-0.006c3.372-3.111,5.413-7.149,5.413-11.565c0-3.668-1.406-7.076-3.815-9.909
			C50.669,17.703,43.798,14.574,36,14.574c-12.441,0-22.527,7.966-22.527,17.792c0,9.567,9.559,17.366,21.545,17.773l-0.453,6.327
			l13.452-8.542C50.016,46.671,51.58,45.342,53.097,43.947z M44.195,32.336c0.363-0.759,1.008-1.199,1.859-1.199
			c1.174,0,2.006,0.842,2.006,2.133v3.578h-2.338v-2.912c0-0.472-0.26-0.769-0.645-0.769c-0.437,0-0.717,0.358-0.717,0.903v2.777
			h-2.338v-2.912c0-0.472-0.26-0.769-0.645-0.769c-0.437,0-0.717,0.358-0.717,0.903v2.777h-2.338v-5.608h2.338v0.789
			c0.385-0.563,0.956-0.892,1.694-0.892C43.218,31.137,43.893,31.588,44.195,32.336z M32.94,25.76
			c0.538-0.043,1.046,0.081,1.518,0.374c0.298,0.185,0.581,0.419,0.851,0.7c0.27,0.284,0.515,0.642,0.734,1.075
			c0.209-0.489,0.461-0.882,0.752-1.18c0.291-0.3,0.637-0.482,1.031-0.547c0.627,0,1.106-0.021,1.436-0.064
			c0.221-0.022,0.473-0.083,0.76-0.181c0.287-0.097,0.584-0.243,0.892-0.439c0.307-0.185,0.538-0.346,0.692-0.488
			c0.154-0.141,0.254-0.261,0.298-0.358c0.043-0.14,0.122-0.211,0.23-0.211c0.165,0.032,0.221,0.124,0.165,0.276h0.033
			c-0.198,0.392-0.439,0.768-0.727,1.131c-0.286,0.365-0.604,0.715-0.957,1.051c-0.242,0.282-0.559,0.504-0.949,0.662
			c-0.39,0.155-0.85,0.229-1.379,0.218h-0.411c-0.397,0-0.721,0.062-0.974,0.18c-0.254,0.119-0.436,0.292-0.545,0.521
			c0.021,0.064,0.063,0.149,0.124,0.252c0.06,0.103,0.117,0.222,0.173,0.351c0.045,0.174,0.101,0.331,0.164,0.473
			c0.067,0.141,0.117,0.261,0.149,0.357h-0.513c-0.264-0.423-0.55-0.799-0.857-1.131c-0.307-0.331-0.633-0.604-0.974-0.822
			c-0.154-0.118-0.357-0.228-0.61-0.324c-0.254-0.1-0.529-0.187-0.826-0.261c-0.253-0.055-0.512-0.1-0.775-0.132
			s-0.483-0.049-0.661-0.049h-0.379C31.701,26.291,32.214,25.814,32.94,25.76z M30.811,36.848h-6.683V35.36l3.398-3.875h-3.272
			V29.66h6.483v1.486l-3.398,3.876h3.472V36.848z M34.385,36.93c-1.953,0-3.211-1.139-3.211-2.892c0-1.754,1.258-2.881,3.211-2.881
			c1.954,0,3.212,1.127,3.212,2.881C37.597,35.791,36.339,36.93,34.385,36.93z"/>
		<path fill="#FFFFFF" d="M34.457,32.957c-0.516,0-0.845,0.427-0.845,1.078c0,0.649,0.329,1.076,0.845,1.076
			c0.515,0,0.844-0.427,0.844-1.076C35.301,33.384,34.972,32.957,34.457,32.957z"/>
	</g>
</g>
</svg>
